<svg id="Layer_1" data-name="Layer 1" xmlns="http://www.w3.org/2000/svg" viewBox="0 0 1009 277.95"><defs><style>.cls-1{fill:#fff;}.cls-2,.cls-3,.cls-5{fill:#e94e1b;}.cls-3{font-size:40.11px;font-family:TimesNewRomanPS-BoldMT, Times New Roman;}.cls-3,.cls-5{font-weight:700;}.cls-4{letter-spacing:-0.06em;}.cls-5{font-size:73.53px;font-family:AgencyFB-Bold, Agency FB;letter-spacing:0.19em;}</style></defs><path class="cls-1" d="M124.06,83.22l1.2,49.19h-4.47q-3.15-18.5-15.5-29.76T78.57,91.38q-11.08,0-17.57,5.94T54.53,111a16.62,16.62,0,0,0,2.28,8.71Q60,124.8,66.93,129.8q5.11,3.58,23.61,12.73,25.9,12.72,34.93,24.05a40.65,40.65,0,0,1,8.93,25.89Q134.4,211,120,224.3T83.36,237.63a59.2,59.2,0,0,1-13.16-1.41,99,99,0,0,1-15.56-5.34,23.59,23.59,0,0,0-8.6-2.17,10.67,10.67,0,0,0-6,2.17,15.36,15.36,0,0,0-5.11,6.64h-4V181.81h4q4.79,23.5,18.44,35.85T82.82,230q12.18,0,19.42-6.63t7.24-15.46a20.3,20.3,0,0,0-2.78-10.12,32.26,32.26,0,0,0-8.43-9.3q-5.65-4.41-20-11.48-20.13-9.9-28.95-16.86a51.73,51.73,0,0,1-13.54-15.57A38.54,38.54,0,0,1,31,125.66a40.07,40.07,0,0,1,13-30q12.95-12.4,32.65-12.41A55.48,55.48,0,0,1,90.54,85,70.09,70.09,0,0,1,103,89.81q7.35,3.54,10.29,3.53a5.83,5.83,0,0,0,4.46-1.74q1.64-1.74,3-8.38Z" transform="translate(-24 -10.48)"/><path class="cls-1" d="M191.2,95.19v37.22h24.15v10.77H191.2V206q0,8.81.81,11.37a8.24,8.24,0,0,0,2.89,4.13,6.45,6.45,0,0,0,3.8,1.58q7.08,0,13.39-10.77l3.26,2.39q-8.81,20.9-28.62,20.89a25.28,25.28,0,0,1-16.37-5.38q-6.69-5.38-8.54-12-1.09-3.69-1.09-20V143.18H147.45v-3.81A140.1,140.1,0,0,0,170.79,119,123.52,123.52,0,0,0,187.6,95.19Z" transform="translate(-24 -10.48)"/><path class="cls-1" d="M281.18,219.13q-18.6,16.44-33.4,16.43a19.7,19.7,0,0,1-14.47-5.71,19.3,19.3,0,0,1-5.77-14.31q0-11.64,10-20.95t43.63-24.75V159.61q0-11.54-1.25-14.53a11.71,11.71,0,0,0-4.73-5.22,14.18,14.18,0,0,0-7.84-2.23q-7.07,0-11.64,3.16-2.83,2-2.83,4.57c0,1.52,1,3.41,3.05,5.65q4.14,4.68,4.13,9a12,12,0,0,1-4,9.08,14.48,14.48,0,0,1-10.39,3.76,16.57,16.57,0,0,1-11.48-4.14,12.63,12.63,0,0,1-4.62-9.68q0-7.84,6.2-15t17.3-10.93a70.57,70.57,0,0,1,23.07-3.81q14.47,0,22.9,6.15T310,148.84q1.51,4.56,1.52,21v39.5q0,7,.55,8.76a5.16,5.16,0,0,0,1.63,2.66,3.83,3.83,0,0,0,2.5.87q2.83,0,5.77-4l3.26,2.61q-5.44,8.06-11.26,11.7a24.39,24.39,0,0,1-13.22,3.64q-8.7,0-13.6-4.08T281.18,219.13Zm0-7.94V177.13Q268,184.86,261.6,193.67a20.14,20.14,0,0,0-4.25,11.86,12.46,12.46,0,0,0,3.59,8.81,9.88,9.88,0,0,0,7.62,2.94Q274,217.28,281.18,211.19Z" transform="translate(-24 -10.48)"/><path class="cls-1" d="M378.68,132.41v23.07q10.13-15.78,17.74-20.95t14.69-5.17a12.94,12.94,0,0,1,9.73,3.75q3.65,3.76,3.65,10.61,0,7.29-3.54,11.32a11,11,0,0,1-8.54,4,14.78,14.78,0,0,1-10-3.7,62.93,62.93,0,0,0-5-4.14,4.84,4.84,0,0,0-2.51-.65,9.15,9.15,0,0,0-6,2.39,22.62,22.62,0,0,0-6.75,10.56,74,74,0,0,0-3.48,23.28v23.4l.11,6.09q0,6.21.76,7.95a8.65,8.65,0,0,0,3.86,4.29q2.56,1.36,8.65,1.69v3.92H337.11v-3.92q6.64-.54,9-3.64t2.34-16.38V154q0-8.7-.87-11.1a8.8,8.8,0,0,0-3.16-4.46q-2.06-1.41-7.29-2v-4Z" transform="translate(-24 -10.48)"/><path class="cls-1" d="M474.76,86.6v56q12.84-13.27,28.08-13.28a35,35,0,0,1,19.69,6.15A40.94,40.94,0,0,1,537,153q5.22,11.33,5.23,26.12a68.12,68.12,0,0,1-6.64,30.25q-6.65,13.6-17.74,20.73a45.91,45.91,0,0,1-25.35,7.13,38.72,38.72,0,0,1-14.69-2.62,41.12,41.12,0,0,1-12.62-8.48l-16.87,11h-3.7V107.71q0-8.82-.76-10.88a8.51,8.51,0,0,0-3.43-4.52q-2.34-1.47-7.89-1.69v-4Zm0,65.72v45.27q0,13.82.65,17.62a18.17,18.17,0,0,0,5.23,10.4,14.62,14.62,0,0,0,10.55,4,14.8,14.8,0,0,0,9.52-3.16q4-3.15,6.64-12.51T510,180.18q0-23.4-5.88-32.1a13.13,13.13,0,0,0-11.42-6.31Q483.36,141.77,474.76,152.32Z" transform="translate(-24 -10.48)"/><path class="cls-1" d="M657.57,132.41v79.65q0,11.64,2.17,14.53t8.82,3.64v3.92H627.1v-13.6q-7.29,8.7-14.58,12.67a33.53,33.53,0,0,1-16.32,4,24.07,24.07,0,0,1-15.29-5.28,25.86,25.86,0,0,1-9-12.35q-2.28-7.08-2.28-24.7V154.5q0-11.53-2.12-14.37t-8.87-3.7v-4h41.45v69.53q0,10.88,1,14a9.24,9.24,0,0,0,3.26,4.78,8.52,8.52,0,0,0,5.17,1.64,12.6,12.6,0,0,0,7.07-2.07Q621,217.5,627.1,208.9V154.5q0-11.53-2.12-14.37t-8.87-3.7v-4Z" transform="translate(-24 -10.48)"/><path class="cls-2" d="M1032.84,158.49l.16,0c-4.81-33.83-17.24-56.59-56.72-74.35-40.65-18.28-92.56,5.59-93.93,6.23,0,0-.05,0-.08,0-39.92-17-68,5.72-72.9,10.14-.12.11,0,.26.17.19,37-20.82,74.36-.85,75.55-.2,0,0,0,0,.09,0,48.74-16.78,69.28-16,97.52-.79,28.87,15.59,40.59,30.83,50,58.9Z" transform="translate(-24 -10.48)"/><path class="cls-2" d="M802.12,144.78s-3-19.78,11.39-29.54,31.17-23.31,71.28-5.15c0,0,59.33-24.26,91.5-5,32.8,19.62,48.32,36.05,50,85.78,1.62,48.6-61.53,68.3-61.53,68.3s-36.86,10-57.46,11.93-34.7,13.74-36.59,17.34c0,0-29.55-34.69-57.46-38.76,0,0,19.78-5.42,56.1,19.25,0,0,35.25-11.11,43.78-12.2s47-11.92,57.32-20.33,48.79-45.29,8.4-91.61-95.13-13-95.13-13S841.15,89.22,802.12,144.78Z" transform="translate(-24 -10.48)"/><path class="cls-2" d="M616.12,236.19S653.3,263.13,715,251s125.83,9.43,146.68,37.46c0,0-38.65-34.59-134.64-23.19S627.58,255.5,616.12,236.19Z" transform="translate(-24 -10.48)"/><path class="cls-2" d="M62.28,41.28a177.28,177.28,0,0,1,18.8-17c5.19-4.08,10.67-7.89,16.78-10.41a45.79,45.79,0,0,1,32.54-.74c4.61,1.66,9.06,4.16,12.14,8,4.31,5.32,5.47,12.56,5.25,19.41-.14,4.47-.86,9.09-3.28,12.86-5.37,8.37-17.67,10.61-22.17,19.48,1.1-2.8-.52-6.08-3-7.85s-5.5-2.38-8.46-3c-6.23-1.19-12.46-2.39-18.77-3A112.65,112.65,0,0,0,63,60.38C59.12,61,55,62,52.19,64.72s-3.8,7.79-1,10.54c17.35-3.6,35.69-6.17,52.54-.69-19.32-.3-39.09-.54-57.4,5.62a33.38,33.38,0,0,0-1.56-10.9,15,15,0,0,0-6.8-8.4c-2.51-1.31-5.42-1.67-8-2.79-7-3-6.75-12.82-4.69-19a15.76,15.76,0,0,1,8.06-9.44,22.07,22.07,0,0,1,8.3-1.53c9.47-.35,19.09,1,28.34-1,9.64-2.09,18.4-6.57,26.63-12,.71,1.62-.11,2.51-1.19,3.91a14.85,14.85,0,0,1-4.1,3.31L78.18,30.61a15.68,15.68,0,0,1-3.67,1.87A15.58,15.58,0,0,1,70.2,33l-21.6.34c-3.23.05-6.59.13-9.47,1.58a10.76,10.76,0,0,0,1.35,19.8c5.1,1.74,10.59-.5,15.69-2.22,13.6-4.59,28.11-5.61,42.43-6.6l-4.86,5.34,22.52-8.57L103,55A29.37,29.37,0,0,0,131,40.18L122.37,58.3a17.34,17.34,0,0,0,16.18-24.61A22.47,22.47,0,0,0,130,24.43a31.27,31.27,0,0,0-15.31-4.76C105.1,19.28,95.93,23.3,87.6,28S71.3,38.21,62.28,41.28Z" transform="translate(-24 -10.48)"/><text class="cls-3" transform="translate(182.2 107.43)">AMBROSI<tspan class="cls-4" x="191.67" y="0">A</tspan></text><text class="cls-5" transform="translate(657.07 227.12) scale(1.23 1)">cafe</text><path class="cls-1" d="M716.3,186.12c0-1.91-.08-3.86-.08-5.94q0-17.52,2.56-26t6.58-11.86a10,10,0,0,1,6.64-2.18q11.64,0,19.69,15.46v30.53h30.47V86.6H737v4.57q7.18,0,9.79,1.52a9.33,9.33,0,0,1,3.92,4.68c.65,1.6,1,6.27,1,14v30.68q-6.42-7.07-12.08-9.9a28.52,28.52,0,0,0-13-2.83A37.11,37.11,0,0,0,705.5,136q-9.86,6.63-15.51,19.64a73.11,73.11,0,0,0-5.65,29.43c0,.36,0,.69,0,1.05Z" transform="translate(-24 -10.48)"/><path class="cls-1" d="M822.1,186.12h50.82q-5.28-7.38-20.58-17.75-16-10.83-19.47-15.29a8.91,8.91,0,0,1-2.18-5.66,9.28,9.28,0,0,1,3.15-6.91,10.71,10.71,0,0,1,7.62-3q7.08,0,14.2,5.66t13.77,21.11h3.7l-1.64-34.71h-3.7a20.73,20.73,0,0,1-3.8,4.62,5.47,5.47,0,0,1-3.16.82,10.74,10.74,0,0,1-4.79-1.63,34.11,34.11,0,0,0-16-4q-15.34,0-23.45,9.52a32,32,0,0,0-8.11,21.28,30.72,30.72,0,0,0,7.18,19.69A50.45,50.45,0,0,0,822.1,186.12Z" transform="translate(-24 -10.48)"/></svg>